<svg width="234" height="97" viewBox="0 0 234 97" fill="none" xmlns="http://www.w3.org/2000/svg">
<path d="M102.436 30.9056L92.3048 59.7953L112.792 59.7953L102.436 30.9056ZM127.876 78.3833C128.101 79.0551 128.326 79.503 128.326 79.9509C128.326 80.3988 128.326 80.6228 127.876 80.8467C127.651 81.0707 127.2 81.2946 126.75 81.2946C126.3 81.2946 125.399 81.2946 124.499 81.2946C123.598 81.2946 122.698 81.2946 122.247 81.2946C121.797 81.2946 121.347 81.0707 120.897 81.0707C120.672 81.0707 120.446 80.8467 120.221 80.6228C119.996 80.3988 119.996 80.1749 119.771 79.9509L114.818 65.842L90.2786 65.842L85.5508 79.727C85.5508 79.9509 85.3257 80.1749 85.1005 80.3988C84.8754 80.6228 84.6503 80.8467 84.4251 80.8467C84.2 81.0707 83.7497 81.0707 83.2995 81.0707C82.8492 81.0707 82.1738 81.0707 81.2733 81.0707C80.3727 81.0707 79.6973 81.0707 79.0219 81.0707C78.5717 81.0707 78.1214 80.8467 77.8963 80.6228C77.6711 80.3988 77.6711 80.1749 77.6711 79.727C77.6711 79.2791 77.8963 78.8312 78.1214 78.1593L97.9331 24.187C98.1582 23.9631 98.1582 23.5152 98.3834 23.2912C98.6085 23.0673 98.8336 22.8433 99.2839 22.8433C99.7342 22.6194 100.184 22.6194 100.635 22.6194C101.31 22.6194 101.985 22.6194 102.886 22.6194C103.787 22.6194 104.687 22.6194 105.362 22.6194C106.038 22.6194 106.488 22.8433 106.938 22.8433C107.389 23.0673 107.614 23.0673 107.839 23.2912C108.064 23.5152 108.289 23.7391 108.289 24.187L127.876 78.3833Z" fill="white"/>
<path d="M181.908 80.1743C181.908 80.3983 181.908 80.6222 181.683 80.8462C181.458 81.0701 181.458 81.0701 181.007 81.2941C180.782 81.518 180.332 81.518 179.882 81.518C179.431 81.518 178.756 81.518 178.081 81.518C177.405 81.518 176.73 81.518 176.279 81.518C175.829 81.518 175.379 81.2941 175.154 81.2941C174.929 81.0701 174.704 81.0701 174.478 80.8462C174.253 80.6222 174.253 80.3983 174.253 80.1743L174.253 42.1026C174.253 41.2068 174.253 40.311 174.253 39.1912C174.253 38.2954 174.253 37.1757 174.478 36.5038C174.253 36.9517 174.028 37.3996 173.578 37.8475C173.353 38.2954 172.903 38.7433 172.677 39.4152C172.452 39.8631 172.002 40.5349 171.777 40.9828C171.552 41.4307 171.101 42.1026 170.876 42.5505L144.986 80.1743C144.761 80.3983 144.536 80.6222 144.536 80.8462C144.311 81.0701 144.085 81.0701 143.86 81.2941C143.635 81.2941 143.185 81.518 142.735 81.518C142.284 81.518 141.834 81.518 141.159 81.518C140.483 81.518 139.808 81.518 139.358 81.518C138.907 81.518 138.457 81.2941 138.232 81.2941C138.007 81.0701 137.782 81.0701 137.782 80.8462C137.782 80.6222 137.557 80.3983 137.557 80.1743L137.557 24.1865C137.557 23.9625 137.557 23.7386 137.782 23.5146C138.007 23.2907 138.232 23.2907 138.457 23.0667C138.682 22.8428 139.133 22.8428 139.583 22.8428C140.033 22.8428 140.708 22.8428 141.384 22.8428C142.059 22.8428 142.735 22.8428 143.185 22.8428C143.635 22.8428 144.085 23.0667 144.311 23.0667C144.536 23.2907 144.761 23.2907 144.986 23.5146C145.211 23.7386 145.211 23.9625 145.211 24.1865L145.211 62.4822C145.211 63.378 145.211 64.0498 145.211 65.1696C145.211 66.0654 145.211 66.9612 144.986 67.857C145.436 67.1851 146.112 66.2893 146.787 65.1696C147.462 64.0498 148.138 63.154 148.813 62.0343L174.253 24.1865C174.478 23.9625 174.478 23.7386 174.704 23.7386C174.929 23.5146 175.154 23.5146 175.379 23.2907C175.604 23.2907 176.054 23.0667 176.505 23.0667C176.955 23.0667 177.405 23.0667 178.081 23.0667C178.756 23.0667 179.431 23.0667 179.882 23.0667C180.332 23.0667 180.782 23.2907 181.007 23.2907C181.232 23.5146 181.458 23.5146 181.458 23.7386C181.458 23.9625 181.683 24.1865 181.683 24.4104L181.683 80.1743L181.908 80.1743Z" fill="white"/>
<path d="M225.359 40.759C225.359 38.2955 224.909 36.5039 224.008 34.9362C223.108 33.3686 221.982 32.2488 220.631 31.353C219.28 30.4572 217.929 30.0093 216.579 29.7854C215.228 29.5614 213.877 29.5614 212.526 29.5614L205.322 29.5614L205.322 52.8524L212.301 52.8524C214.778 52.8524 216.579 52.6284 218.155 51.9566C219.731 51.2847 221.081 50.6128 221.982 49.4931C223.108 48.3733 223.783 47.2536 224.458 45.6859C225.134 44.1182 225.359 42.5506 225.359 40.759ZM233.689 40.0871C233.689 42.9985 233.238 45.6859 232.338 47.9254C231.437 50.1649 230.087 52.1805 228.286 53.9721C226.484 55.5398 224.233 56.8835 221.532 57.7793C218.83 58.6751 215.678 59.123 212.076 59.123L205.322 59.123L205.322 79.9505C205.322 80.1744 205.322 80.3984 205.097 80.6223C204.872 80.8463 204.647 80.8463 204.421 81.0702C204.196 81.0702 203.746 81.2942 203.296 81.2942C202.846 81.2942 202.17 81.5181 201.495 81.5181C200.819 81.5181 200.144 81.5181 199.694 81.2942C199.243 81.2942 198.793 81.0702 198.568 81.0702C198.343 81.0702 198.118 80.8463 197.893 80.6223C197.667 80.3984 197.667 80.1744 197.667 79.9505L197.667 26.4261C197.667 25.3063 197.893 24.4105 198.568 23.9626C199.243 23.5147 199.919 23.2908 200.819 23.2908L213.427 23.2908C214.778 23.2908 215.903 23.2908 217.029 23.5147C218.155 23.5147 219.505 23.7387 221.081 24.1866C222.657 24.6345 224.233 25.0824 226.034 26.2021C227.61 27.0979 229.186 28.2177 230.312 29.7854C231.437 31.1291 232.338 32.6967 233.013 34.4883C233.238 36.056 233.689 37.8476 233.689 40.0871Z" fill="white"/>
<path d="M2.01197e-09 61.5865L12.8326 68.529L12.8326 27.5459L0 21.0513L2.01197e-09 61.5865Z" fill="white"/>
<path d="M4.5575e-10 21.0516L12.8326 27.5462L27.9165 19.484L15.0839 11.8696L4.5575e-10 21.0516Z" fill="white"/>
<path d="M37.8228 63.6024L71.5927 44.3425L71.5927 61.8107L37.8228 81.7424L37.8228 63.6024Z" fill="white"/>
<path d="M20.4871 72.5604L20.4871 56.2119L37.8223 63.6023L37.8223 81.7424L20.4871 72.5604Z" fill="white"/>
<path d="M35.3463 -6.48121e-10L22.2886 7.8383L58.3098 27.9939L71.5927 19.7077L35.3463 -6.48121e-10Z" fill="white"/>
<path d="M71.5929 36.9523L58.3101 43.8948L58.3101 27.9942L71.5929 19.708L71.5929 36.9523Z" fill="white"/>
<path d="M7.37134 92.4123H4.00108L3.36035 94.3345H1.31641L4.78918 85.0054H6.57042L10.0624 94.3345H8.01848L7.37134 92.4123ZM4.52007 90.8553H6.85234L5.6798 87.3633L4.52007 90.8553Z" fill="white"/>
<path d="M15.2267 88.901H12.3562V94.3345H10.5045V87.4017H15.2267V88.901Z" fill="white"/>
<path d="M19.0647 94.4626C18.0481 94.4626 17.2194 94.1508 16.5787 93.5271C15.9422 92.9035 15.624 92.0727 15.624 91.0347V90.8553C15.624 90.159 15.7585 89.5375 16.0276 88.9907C16.2968 88.4397 16.6769 88.0168 17.1682 87.7221C17.6637 87.4231 18.2275 87.2736 18.8597 87.2736C19.808 87.2736 20.5534 87.5726 21.0958 88.1706C21.6426 88.7686 21.916 89.6165 21.916 90.7143V91.4704H17.5013C17.5611 91.9232 17.7405 92.2862 18.0396 92.5596C18.3428 92.833 18.7251 92.9697 19.1865 92.9697C19.8998 92.9697 20.4573 92.7113 20.8588 92.1944L21.7686 93.2132C21.491 93.6062 21.1151 93.9137 20.6409 94.1358C20.1668 94.3537 19.6414 94.4626 19.0647 94.4626ZM18.8533 88.7729C18.4859 88.7729 18.1869 88.8968 17.9563 89.1445C17.7299 89.3923 17.5846 89.7468 17.5206 90.2081H20.0963V90.0608C20.0878 89.6507 19.9767 89.3346 19.7631 89.1125C19.5495 88.8861 19.2463 88.7729 18.8533 88.7729Z" fill="white"/>
<path d="M28.9833 94.3345H27.1252V91.669H24.8249V94.3345H22.9732V87.4017H24.8249V90.1825H27.1252V87.4017H28.9833V94.3345Z" fill="white"/>
<path d="M36.1723 88.8882H33.949V94.3345H32.0908V88.8882H29.9059V87.4017H36.1723V88.8882Z" fill="white"/>
<path d="M39.581 92.9697C39.9227 92.9697 40.2004 92.8757 40.414 92.6878C40.6275 92.4998 40.7386 92.2499 40.7471 91.9381H42.4835C42.4793 92.408 42.3511 92.8394 42.0991 93.2324C41.8471 93.6211 41.5011 93.9244 41.0611 94.1422C40.6254 94.3558 40.1427 94.4626 39.613 94.4626C38.622 94.4626 37.8404 94.1486 37.268 93.5207C36.6956 92.8885 36.4094 92.0171 36.4094 90.9065V90.7848C36.4094 89.7169 36.6934 88.8647 37.2616 88.2283C37.8297 87.5918 38.6092 87.2736 39.6002 87.2736C40.4674 87.2736 41.1615 87.5213 41.6826 88.0168C42.208 88.508 42.475 89.1637 42.4835 89.9839H40.7471C40.7386 89.6251 40.6275 89.3346 40.414 89.1125C40.2004 88.8861 39.9185 88.7729 39.5682 88.7729C39.1368 88.7729 38.81 88.9309 38.5879 89.247C38.37 89.5589 38.2611 90.0672 38.2611 90.772V90.9642C38.2611 91.6775 38.37 92.1901 38.5879 92.502C38.8057 92.8138 39.1368 92.9697 39.581 92.9697Z" fill="white"/>
<path d="M49.2945 88.8882H47.0712V94.3345H45.2131V88.8882H43.0282V87.4017H49.2945V88.8882Z" fill="white"/>
<path d="M50.3517 94.3345V87.4017H53.2479C54.1919 87.4017 54.9159 87.5683 55.4199 87.9015C55.924 88.2347 56.176 88.7131 56.176 89.3367C56.176 89.6571 56.0692 89.9454 55.8556 90.2017C55.6463 90.4537 55.3388 90.6481 54.933 90.7848C55.4285 90.8788 55.8172 91.0646 56.0991 91.3422C56.3853 91.6156 56.5284 91.9531 56.5284 92.3546C56.5284 92.9996 56.2849 93.4908 55.798 93.8283C55.3153 94.1657 54.6126 94.3345 53.69 94.3345H50.3517ZM52.2035 91.4576V92.8544H53.6964C54.3499 92.8544 54.6767 92.6258 54.6767 92.1688C54.6767 91.7032 54.3649 91.4661 53.7412 91.4576H52.2035ZM52.2035 90.2145H53.3504C53.9997 90.206 54.3243 89.9967 54.3243 89.5866C54.3243 89.3346 54.2346 89.1552 54.0552 89.0484C53.8801 88.9416 53.6109 88.8882 53.2479 88.8882H52.2035V90.2145Z" fill="white"/>
<path d="M57.3742 90.804C57.3742 90.1163 57.5066 89.5033 57.7714 88.9651C58.0363 88.4269 58.4164 88.0104 58.9119 87.7157C59.4117 87.4209 59.9905 87.2736 60.6483 87.2736C61.5838 87.2736 62.3463 87.5598 62.9357 88.1322C63.5295 88.7045 63.8605 89.482 63.9289 90.4644L63.9417 90.9386C63.9417 92.0022 63.6448 92.8565 63.0511 93.5015C62.4573 94.1422 61.6607 94.4626 60.6611 94.4626C59.6616 94.4626 58.8628 94.1422 58.2648 93.5015C57.6711 92.8608 57.3742 91.9894 57.3742 90.8873V90.804ZM59.2259 90.9386C59.2259 91.5964 59.3498 92.1004 59.5975 92.4507C59.8453 92.7967 60.1998 92.9697 60.6611 92.9697C61.1097 92.9697 61.4599 92.7988 61.7119 92.4571C61.964 92.1111 62.09 91.5601 62.09 90.804C62.09 90.159 61.964 89.6592 61.7119 89.3047C61.4599 88.9502 61.1054 88.7729 60.6483 88.7729C60.1955 88.7729 59.8453 88.9502 59.5975 89.3047C59.3498 89.655 59.2259 90.1996 59.2259 90.9386Z" fill="white"/>
<path d="M72.5275 87.4017H74.3792V94.3345H72.5275V90.0544L70.2081 94.3345H68.3499V87.4017H70.2081V91.6754L72.5275 87.4017Z" fill="white"/>
<path d="M81.8054 94.3345H79.9472V91.669H77.647V94.3345H75.7953V87.4017H77.647V90.1825H79.9472V87.4017H81.8054V94.3345Z" fill="white"/>
<path d="M89.2507 94.3345H87.3925V91.669H85.0923V94.3345H83.2406V87.4017H85.0923V90.1825H87.3925V87.4017H89.2507V94.3345Z" fill="white"/>
<path d="M90.3976 90.804C90.3976 90.1163 90.53 89.5033 90.7948 88.9651C91.0597 88.4269 91.4398 88.0104 91.9353 87.7157C92.4351 87.4209 93.0139 87.2736 93.6717 87.2736C94.6072 87.2736 95.3697 87.5598 95.9592 88.1322C96.5529 88.7045 96.8839 89.482 96.9523 90.4644L96.9651 90.9386C96.9651 92.0022 96.6682 92.8565 96.0745 93.5015C95.4807 94.1422 94.6841 94.4626 93.6846 94.4626C92.685 94.4626 91.8862 94.1422 91.2882 93.5015C90.6945 92.8608 90.3976 91.9894 90.3976 90.8873V90.804ZM92.2493 90.9386C92.2493 91.5964 92.3732 92.1004 92.6209 92.4507C92.8687 92.7967 93.2232 92.9697 93.6846 92.9697C94.1331 92.9697 94.4833 92.7988 94.7354 92.4571C94.9874 92.1111 95.1134 91.5601 95.1134 90.804C95.1134 90.159 94.9874 89.6592 94.7354 89.3047C94.4833 88.9502 94.1288 88.7729 93.6717 88.7729C93.2189 88.7729 92.8687 88.9502 92.6209 89.3047C92.3732 89.655 92.2493 90.1996 92.2493 90.9386Z" fill="white"/>
<path d="M98.2274 94.3345V87.4017H101.123C102.067 87.4017 102.792 87.5683 103.296 87.9015C103.8 88.2347 104.052 88.7131 104.052 89.3367C104.052 89.6571 103.945 89.9454 103.731 90.2017C103.522 90.4537 103.214 90.6481 102.809 90.7848C103.304 90.8788 103.693 91.0646 103.975 91.3422C104.261 91.6156 104.404 91.9531 104.404 92.3546C104.404 92.9996 104.161 93.4908 103.674 93.8283C103.191 94.1657 102.488 94.3345 101.566 94.3345H98.2274ZM100.079 91.4576V92.8544H101.572C102.226 92.8544 102.552 92.6258 102.552 92.1688C102.552 91.7032 102.24 91.4661 101.617 91.4576H100.079ZM100.079 90.2145H101.226C101.875 90.206 102.2 89.9967 102.2 89.5866C102.2 89.3346 102.11 89.1552 101.931 89.0484C101.756 88.9416 101.487 88.8882 101.123 88.8882H100.079V90.2145Z" fill="white"/>
<path d="M109.556 94.3345C109.47 94.1679 109.408 93.9607 109.37 93.7129C108.921 94.2127 108.338 94.4626 107.621 94.4626C106.941 94.4626 106.377 94.2661 105.929 93.8731C105.485 93.4801 105.263 92.9846 105.263 92.3866C105.263 91.6519 105.534 91.0881 106.076 90.6951C106.623 90.3021 107.411 90.1035 108.441 90.0992H109.293V89.7019C109.293 89.3816 109.21 89.1253 109.043 88.9331C108.881 88.7408 108.622 88.6447 108.268 88.6447C107.956 88.6447 107.71 88.7195 107.531 88.869C107.356 89.0185 107.268 89.2235 107.268 89.4841H105.416C105.416 89.0826 105.54 88.7109 105.788 88.3692C106.036 88.0275 106.386 87.7605 106.839 87.5683C107.292 87.3718 107.8 87.2736 108.364 87.2736C109.218 87.2736 109.895 87.4893 110.395 87.9207C110.899 88.3479 111.151 88.9502 111.151 89.7276V92.7326C111.155 93.3904 111.247 93.8881 111.426 94.2255V94.3345H109.556ZM108.024 93.0466C108.298 93.0466 108.55 92.9868 108.78 92.8672C109.011 92.7433 109.182 92.5788 109.293 92.3738V91.182H108.601C107.674 91.182 107.181 91.5024 107.121 92.1431L107.114 92.2521C107.114 92.4827 107.195 92.6728 107.358 92.8223C107.52 92.9718 107.742 93.0466 108.024 93.0466Z" fill="white"/>
<path d="M112.573 87.4017H114.425V92.8415H116.745V87.4017H118.603V92.8544H119.641L119.513 96.3912H117.789V94.3345H112.573V87.4017Z" fill="white"/>
<path d="M124.747 87.4017H126.599V94.3345H124.747V90.0544L122.428 94.3345H120.57V87.4017H122.428V91.6754L124.747 87.4017Z" fill="white"/>
<path d="M127.727 90.804C127.727 90.1163 127.859 89.5033 128.124 88.9651C128.389 88.4269 128.769 88.0104 129.264 87.7157C129.764 87.4209 130.343 87.2736 131.001 87.2736C131.936 87.2736 132.699 87.5598 133.288 88.1322C133.882 88.7045 134.213 89.482 134.281 90.4644L134.294 90.9386C134.294 92.0022 133.997 92.8565 133.404 93.5015C132.81 94.1422 132.013 94.4626 131.014 94.4626C130.014 94.4626 129.215 94.1422 128.617 93.5015C128.024 92.8608 127.727 91.9894 127.727 90.8873V90.804ZM129.578 90.9386C129.578 91.5964 129.702 92.1004 129.95 92.4507C130.198 92.7967 130.552 92.9697 131.014 92.9697C131.462 92.9697 131.812 92.7988 132.064 92.4571C132.317 92.1111 132.443 91.5601 132.443 90.804C132.443 90.159 132.317 89.6592 132.064 89.3047C131.812 88.9502 131.458 88.7729 131.001 88.7729C130.548 88.7729 130.198 88.9502 129.95 89.3047C129.702 89.655 129.578 90.1996 129.578 90.9386Z" fill="white"/>
<path d="M141.445 94.3345H139.587V91.669H137.286V94.3345H135.435V87.4017H137.286V90.1825H139.587V87.4017H141.445V94.3345Z" fill="white"/>
<path d="M148.89 94.3345H147.032V91.669H144.732V94.3345H142.88V87.4017H144.732V90.1825H147.032V87.4017H148.89V94.3345Z" fill="white"/>
<path d="M150.037 90.804C150.037 90.1163 150.169 89.5033 150.434 88.9651C150.699 88.4269 151.079 88.0104 151.575 87.7157C152.075 87.4209 152.653 87.2736 153.311 87.2736C154.247 87.2736 155.009 87.5598 155.599 88.1322C156.192 88.7045 156.523 89.482 156.592 90.4644L156.605 90.9386C156.605 92.0022 156.308 92.8565 155.714 93.5015C155.12 94.1422 154.324 94.4626 153.324 94.4626C152.324 94.4626 151.526 94.1422 150.928 93.5015C150.334 92.8608 150.037 91.9894 150.037 90.8873V90.804ZM151.889 90.9386C151.889 91.5964 152.013 92.1004 152.26 92.4507C152.508 92.7967 152.863 92.9697 153.324 92.9697C153.773 92.9697 154.123 92.7988 154.375 92.4571C154.627 92.1111 154.753 91.5601 154.753 90.804C154.753 90.159 154.627 89.6592 154.375 89.3047C154.123 88.9502 153.768 88.7729 153.311 88.7729C152.858 88.7729 152.508 88.9502 152.26 89.3047C152.013 89.655 151.889 90.1996 151.889 90.9386Z" fill="white"/>
<path d="M162.467 88.901H159.597V94.3345H157.745V87.4017H162.467V88.901Z" fill="white"/>
<path d="M162.826 90.804C162.826 90.1163 162.959 89.5033 163.223 88.9651C163.488 88.4269 163.868 88.0104 164.364 87.7157C164.864 87.4209 165.442 87.2736 166.1 87.2736C167.036 87.2736 167.798 87.5598 168.388 88.1322C168.981 88.7045 169.312 89.482 169.381 90.4644L169.394 90.9386C169.394 92.0022 169.097 92.8565 168.503 93.5015C167.909 94.1422 167.113 94.4626 166.113 94.4626C165.114 94.4626 164.315 94.1422 163.717 93.5015C163.123 92.8608 162.826 91.9894 162.826 90.8873V90.804ZM164.678 90.9386C164.678 91.5964 164.802 92.1004 165.049 92.4507C165.297 92.7967 165.652 92.9697 166.113 92.9697C166.562 92.9697 166.912 92.7988 167.164 92.4571C167.416 92.1111 167.542 91.5601 167.542 90.804C167.542 90.159 167.416 89.6592 167.164 89.3047C166.912 88.9502 166.557 88.7729 166.1 88.7729C165.647 88.7729 165.297 88.9502 165.049 89.3047C164.802 89.655 164.678 90.1996 164.678 90.9386Z" fill="white"/>
<path d="M180.043 90.9322C180.043 92 179.799 92.8565 179.312 93.5015C178.829 94.1422 178.176 94.4626 177.352 94.4626C176.651 94.4626 176.085 94.2191 175.654 93.7322V96.9999H173.802V87.4017H175.519L175.583 88.0809C176.032 87.5427 176.617 87.2736 177.339 87.2736C178.193 87.2736 178.857 87.5897 179.331 88.2219C179.806 88.854 180.043 89.7254 180.043 90.836V90.9322ZM178.191 90.7976C178.191 90.1526 178.076 89.655 177.845 89.3047C177.619 88.9544 177.287 88.7793 176.852 88.7793C176.271 88.7793 175.871 89.0014 175.654 89.4457V92.2841C175.88 92.7412 176.284 92.9697 176.865 92.9697C177.749 92.9697 178.191 92.2457 178.191 90.7976Z" fill="white"/>
<path d="M185.213 94.3345C185.128 94.1679 185.066 93.9607 185.028 93.7129C184.579 94.2127 183.996 94.4626 183.278 94.4626C182.599 94.4626 182.035 94.2661 181.587 93.8731C181.143 93.4801 180.92 92.9846 180.92 92.3866C180.92 91.6519 181.192 91.0881 181.734 90.6951C182.281 90.3021 183.069 90.1035 184.098 90.0992H184.951V89.7019C184.951 89.3816 184.867 89.1253 184.701 88.9331C184.538 88.7408 184.28 88.6447 183.925 88.6447C183.614 88.6447 183.368 88.7195 183.189 88.869C183.013 89.0185 182.926 89.2235 182.926 89.4841H181.074C181.074 89.0826 181.198 88.7109 181.446 88.3692C181.694 88.0275 182.044 87.7605 182.497 87.5683C182.949 87.3718 183.458 87.2736 184.022 87.2736C184.876 87.2736 185.553 87.4893 186.053 87.9207C186.557 88.3479 186.809 88.9502 186.809 89.7276V92.7326C186.813 93.3904 186.905 93.8881 187.084 94.2255V94.3345H185.213ZM183.682 93.0466C183.955 93.0466 184.207 92.9868 184.438 92.8672C184.669 92.7433 184.84 92.5788 184.951 92.3738V91.182H184.259C183.332 91.182 182.838 91.5024 182.779 92.1431L182.772 92.2521C182.772 92.4827 182.853 92.6728 183.016 92.8223C183.178 92.9718 183.4 93.0466 183.682 93.0466Z" fill="white"/>
<path d="M191.871 89.4457C191.871 89.2022 191.789 89.0142 191.627 88.8818C191.469 88.7451 191.243 88.6768 190.948 88.6768C190.645 88.6768 190.397 88.7408 190.205 88.869C190.017 88.9929 189.923 89.1701 189.923 89.4008H188.071C188.071 88.7729 188.332 88.2624 188.853 87.8694C189.374 87.4765 190.04 87.28 190.852 87.28C191.745 87.28 192.445 87.4551 192.953 87.8054C193.466 88.1556 193.722 88.6533 193.722 89.2983C193.722 89.6058 193.628 89.8899 193.44 90.1505C193.257 90.4068 192.996 90.6118 192.659 90.7656C193.449 91.0432 193.844 91.5793 193.844 92.3738C193.844 93.0103 193.571 93.5186 193.024 93.8988C192.481 94.2746 191.757 94.4626 190.852 94.4626C190.01 94.4626 189.318 94.2661 188.776 93.8731C188.233 93.4801 187.962 92.9505 187.962 92.2841H189.814C189.814 92.519 189.918 92.7091 190.128 92.8544C190.337 92.9996 190.61 93.0722 190.948 93.0722C191.277 93.0722 191.533 92.9953 191.717 92.8415C191.9 92.6878 191.992 92.487 191.992 92.2393C191.992 91.936 191.905 91.7203 191.73 91.5921C191.554 91.4597 191.292 91.3935 190.941 91.3935H189.936V90.1889H191.006C191.582 90.1718 191.871 89.9241 191.871 89.4457Z" fill="white"/>
<path d="M195.093 94.3345V87.4017H197.99C198.934 87.4017 199.658 87.5683 200.162 87.9015C200.666 88.2347 200.918 88.7131 200.918 89.3367C200.918 89.6571 200.811 89.9454 200.597 90.2017C200.388 90.4537 200.08 90.6481 199.675 90.7848C200.17 90.8788 200.559 91.0646 200.841 91.3422C201.127 91.6156 201.27 91.9531 201.27 92.3546C201.27 92.9996 201.027 93.4908 200.54 93.8283C200.057 94.1657 199.354 94.3345 198.432 94.3345H195.093ZM196.945 91.4576V92.8544H198.438C199.092 92.8544 199.418 92.6258 199.418 92.1688C199.418 91.7032 199.107 91.4661 198.483 91.4576H196.945ZM196.945 90.2145H198.092C198.741 90.206 199.066 89.9967 199.066 89.5866C199.066 89.3346 198.976 89.1552 198.797 89.0484C198.622 88.9416 198.353 88.8882 197.99 88.8882H196.945V90.2145Z" fill="white"/>
<path d="M206.582 87.4017H208.434V94.3345H206.582V90.0544L204.262 94.3345H202.404V87.4017H204.262V91.6754L206.582 87.4017Z" fill="white"/>
<path d="M215.603 88.8882H213.38V94.3345H211.522V88.8882H209.337V87.4017H215.603V88.8882Z" fill="white"/>
<path d="M220.716 87.4017H222.568V94.3345H220.716V90.0544L218.397 94.3345H216.539V87.4017H218.397V91.6754L220.716 87.4017Z" fill="white"/>
<path d="M229.764 87.4017V94.3345H227.918V91.9381H226.746L225.413 94.3345H223.536L225.048 91.6241C224.633 91.4319 224.313 91.1714 224.087 90.8425C223.865 90.5135 223.753 90.1398 223.753 89.7212C223.753 89.0505 224.012 88.5016 224.529 88.0745C225.05 87.6431 225.746 87.4188 226.618 87.4017H229.764ZM226.65 90.6438H227.918V88.8882H226.714C226.385 88.8882 226.118 88.9758 225.913 89.1509C225.708 89.3218 225.605 89.5311 225.605 89.7788C225.605 90.0266 225.703 90.2316 225.9 90.3939C226.096 90.5563 226.346 90.6396 226.65 90.6438Z" fill="white"/>
</svg>
