<svg width="32" height="33" viewBox="0 0 32 33" fill="none" xmlns="http://www.w3.org/2000/svg">
<g clip-path="url(#clip0)">
<path d="M19.0625 16.2698C19.0625 17.9612 17.6914 19.3323 16 19.3323C14.3086 19.3323 12.9375 17.9612 12.9375 16.2698C12.9375 14.5784 14.3086 13.2073 16 13.2073C17.6914 13.2073 19.0625 14.5784 19.0625 16.2698Z" fill="#E2575F"/>
<path d="M23.1621 10.8513C23.0149 10.4524 22.78 10.0913 22.4749 9.79492C22.1785 9.48975 21.8176 9.25488 21.4185 9.10767C21.0947 8.98193 20.6084 8.83228 19.7126 8.7915C18.7437 8.74731 18.4531 8.73779 16 8.73779C13.5466 8.73779 13.2561 8.74707 12.2874 8.79126C11.3916 8.83228 10.905 8.98193 10.5815 9.10767C10.1824 9.25488 9.82129 9.48975 9.52515 9.79492C9.21997 10.0913 8.98511 10.4521 8.83765 10.8513C8.71191 11.175 8.56226 11.6616 8.52148 12.5574C8.47729 13.5261 8.46777 13.8167 8.46777 16.27C8.46777 18.7231 8.47729 19.0137 8.52148 19.9827C8.56226 20.8784 8.71191 21.3647 8.83765 21.6885C8.98511 22.0876 9.21973 22.4485 9.5249 22.7449C9.82129 23.05 10.1821 23.2849 10.5813 23.4321C10.905 23.5581 11.3916 23.7078 12.2874 23.7485C13.2561 23.7927 13.5464 23.802 15.9998 23.802C18.4534 23.802 18.7439 23.7927 19.7124 23.7485C20.6082 23.7078 21.0947 23.5581 21.4185 23.4321C22.2197 23.123 22.853 22.4897 23.1621 21.6885C23.2878 21.3647 23.4375 20.8784 23.4785 19.9827C23.5227 19.0137 23.532 18.7231 23.532 16.27C23.532 13.8167 23.5227 13.5261 23.4785 12.5574C23.4377 11.6616 23.2881 11.175 23.1621 10.8513ZM16 20.9875C13.3943 20.9875 11.282 18.8755 11.282 16.2698C11.282 13.6641 13.3943 11.552 16 11.552C18.6055 11.552 20.7178 13.6641 20.7178 16.2698C20.7178 18.8755 18.6055 20.9875 16 20.9875ZM20.9043 12.468C20.2954 12.468 19.8018 11.9744 19.8018 11.3655C19.8018 10.7566 20.2954 10.2629 20.9043 10.2629C21.5132 10.2629 22.0068 10.7566 22.0068 11.3655C22.0066 11.9744 21.5132 12.468 20.9043 12.468Z" fill="#E2575F"/>
<path d="M16 0.269775C7.16479 0.269775 0 7.43457 0 16.2698C0 25.105 7.16479 32.2698 16 32.2698C24.8352 32.2698 32 25.105 32 16.2698C32 7.43457 24.8352 0.269775 16 0.269775ZM25.1321 20.0576C25.0876 21.0356 24.9321 21.7034 24.7051 22.2878C24.2278 23.522 23.2522 24.4976 22.0181 24.9749C21.4338 25.2019 20.7659 25.3572 19.7881 25.4019C18.8083 25.4465 18.4954 25.4573 16.0002 25.4573C13.5049 25.4573 13.1921 25.4465 12.2122 25.4019C11.2344 25.3572 10.5664 25.2019 9.98218 24.9749C9.3689 24.7441 8.81372 24.3826 8.35474 23.915C7.88745 23.4563 7.52588 22.9009 7.29517 22.2878C7.06812 21.7036 6.9126 21.0356 6.86816 20.0579C6.823 19.0779 6.8125 18.7649 6.8125 16.2698C6.8125 13.7747 6.823 13.4617 6.86792 12.4819C6.91235 11.5039 7.06763 10.8362 7.29468 10.2517C7.52539 9.63867 7.88721 9.08325 8.35474 8.62451C8.81348 8.15698 9.3689 7.79541 9.98193 7.5647C10.5664 7.33765 11.2341 7.18237 12.2122 7.1377C13.1919 7.09302 13.5049 7.08228 16 7.08228C18.4951 7.08228 18.8081 7.09302 19.7878 7.13794C20.7659 7.18237 21.4336 7.33765 22.0181 7.56445C22.6311 7.79517 23.1865 8.15698 23.6455 8.62451C24.1128 9.0835 24.4746 9.63867 24.7051 10.2517C24.9324 10.8362 25.0876 11.5039 25.1323 12.4819C25.177 13.4617 25.1875 13.7747 25.1875 16.2698C25.1875 18.7649 25.177 19.0779 25.1321 20.0576Z" fill="#E2575F"/>
</g>
<defs>
<clipPath id="clip0">
<rect width="32" height="32" fill="white" transform="translate(0 0.269775)"/>
</clipPath>
</defs>
</svg>
