<svg width="146" height="145" viewBox="0 0 146 145" fill="none" xmlns="http://www.w3.org/2000/svg">
<g clip-path="url(#clip0)">
<g opacity="0.8">
<g opacity="0.8">
<path opacity="0.8" d="M18.7661 141.827V144.189H18.0273V142.491H11.4517V144.189H10.7129V141.827H11.0823C11.5995 141.827 11.895 141.384 12.1167 140.645C12.3383 139.907 12.4122 138.8 12.4861 137.397L12.56 134.96H17.6578V141.753H18.7661V141.827ZM12.9294 140.35C12.7816 141.088 12.56 141.605 12.1905 141.827H16.8451V135.699H13.2988L13.2249 137.545C13.151 138.652 13.0771 139.612 12.9294 140.35Z" fill="white"/>
<path opacity="0.8" d="M25.3417 139.908H20.6132C20.6871 140.499 20.9088 140.942 21.2782 141.311C21.7215 141.68 22.2387 141.828 22.8297 141.828C23.1991 141.828 23.4947 141.754 23.7902 141.606C24.0857 141.459 24.3074 141.311 24.529 141.089L24.9723 141.606C24.7507 141.901 24.3813 142.123 24.0118 142.271C23.6424 142.418 23.1991 142.492 22.7558 142.492C22.1648 142.492 21.6476 142.344 21.2043 142.123C20.761 141.901 20.3916 141.532 20.1699 141.089C19.9483 140.646 19.8005 140.13 19.8005 139.613C19.8005 139.096 19.9483 138.579 20.1699 138.136C20.3916 137.693 20.761 137.324 21.1304 137.103C21.5737 136.881 22.017 136.733 22.5342 136.733C23.0514 136.733 23.4947 136.881 23.938 137.103C24.3813 137.324 24.6768 137.693 24.8984 138.136C25.1201 138.579 25.2678 139.096 25.2678 139.613L25.3417 139.908ZM21.2782 137.989C20.9088 138.358 20.6871 138.801 20.6132 139.317H24.6029C24.529 138.727 24.3074 138.284 23.938 137.989C23.5685 137.619 23.1253 137.472 22.5342 137.472C22.0909 137.472 21.6476 137.619 21.2782 137.989Z" fill="white"/>
<path opacity="0.8" d="M31.8432 136.881V142.492H31.1044V137.545H28.3708L28.2969 138.948C28.223 140.129 28.0752 141.015 27.8536 141.68C27.6319 142.344 27.2625 142.64 26.6715 142.64C26.5237 142.64 26.3021 142.64 26.1543 142.566L26.2282 141.901C26.3759 141.901 26.4498 141.975 26.5237 141.975C26.8192 141.975 27.0409 141.827 27.1887 141.532C27.3364 141.237 27.4103 140.942 27.4842 140.499C27.5581 140.129 27.5581 139.539 27.6319 138.874L27.7058 136.881H31.8432Z" fill="white"/>
<path opacity="0.8" d="M37.9756 137.398C38.345 137.767 38.5666 138.284 38.5666 139.022V142.492H37.8278V141.606C37.68 141.901 37.3845 142.123 37.089 142.271C36.7196 142.418 36.3501 142.492 35.9068 142.492C35.2419 142.492 34.7986 142.344 34.4292 142.049C34.0598 141.754 33.8381 141.385 33.8381 140.868C33.8381 140.425 33.9859 139.982 34.3553 139.686C34.7247 139.391 35.2419 139.243 35.9807 139.243H37.7539V138.874C37.7539 138.358 37.6061 137.988 37.3106 137.767C37.0151 137.545 36.6457 137.398 36.1285 137.398C35.7591 137.398 35.3897 137.472 35.0941 137.545C34.7986 137.693 34.5031 137.841 34.2814 138.062L33.912 137.472C34.2075 137.25 34.577 137.029 34.9464 136.881C35.3158 136.733 35.7591 136.659 36.2024 136.659C37.0151 136.807 37.6061 137.029 37.9756 137.398ZM37.1628 141.68C37.4584 141.458 37.68 141.163 37.8278 140.794V139.834H36.0546C35.0941 139.834 34.577 140.203 34.577 140.868C34.577 141.163 34.7247 141.458 34.9464 141.68C35.168 141.901 35.5374 141.975 35.9807 141.975C36.4979 141.975 36.8673 141.828 37.1628 141.68Z" fill="white"/>
<path opacity="0.8" d="M44.9205 137.545H42.7779V142.492H42.0391V137.545H39.8965V136.881H44.9205V137.545Z" fill="white"/>
<path opacity="0.8" d="M50.3878 139.317C50.7572 139.613 50.9049 140.056 50.9049 140.646C50.9049 141.237 50.6833 141.68 50.3139 142.049C49.9445 142.344 49.3534 142.492 48.6146 142.492H46.3242V136.881H47.063V138.874H48.7623C49.5012 138.874 50.0183 139.022 50.3878 139.317ZM49.7967 141.606C50.0922 141.384 50.1661 141.089 50.1661 140.646C50.1661 140.203 50.0183 139.908 49.7967 139.686C49.5012 139.465 49.1318 139.391 48.6146 139.391H47.1369V141.901H48.6146C49.1318 141.901 49.5012 141.827 49.7967 141.606Z" fill="white"/>
<path opacity="0.8" d="M61.3962 141.828V143.821H60.6574V142.492H55.6334V143.821H54.8945V141.828H55.1901C55.5595 141.828 55.855 141.532 55.9289 141.015C56.0766 140.499 56.1505 139.76 56.2244 138.727L56.2983 136.807H60.4357V141.754H61.3962V141.828ZM56.7416 140.794C56.6677 141.311 56.4461 141.68 56.2244 141.828H59.7708V137.545H57.0371L56.9632 138.801C56.8894 139.613 56.8155 140.277 56.7416 140.794Z" fill="white"/>
<path opacity="0.8" d="M67.824 136.881V142.492H67.0851V137.545H64.3515L64.2776 138.948C64.2037 140.129 64.056 141.015 63.8343 141.68C63.6127 142.344 63.2433 142.64 62.6522 142.64C62.5044 142.64 62.2828 142.64 62.135 142.566L62.2089 141.901C62.3567 141.901 62.4305 141.975 62.5044 141.975C62.8 141.975 63.0216 141.827 63.1694 141.532C63.3171 141.237 63.391 140.942 63.4649 140.499C63.5388 140.129 63.5388 139.539 63.6127 138.874L63.6865 136.881H67.824Z" fill="white"/>
<path opacity="0.8" d="M74.6212 136.881V142.492H73.9563V140.646H72.1831H71.9614L70.6316 142.492H69.8188L71.2226 140.499C70.7793 140.351 70.4838 140.203 70.1883 139.908C69.9666 139.613 69.8188 139.243 69.8188 138.8C69.8188 138.136 70.0405 137.693 70.4838 137.398C70.9271 137.102 71.5181 136.881 72.257 136.881H74.6212ZM72.1831 140.056H73.8824V137.545H72.257C71.1487 137.545 70.6316 137.988 70.6316 138.8C70.6316 139.613 71.1487 140.056 72.1831 140.056Z" fill="white"/>
<path opacity="0.8" d="M84.3738 137.324C84.8171 137.545 85.1126 137.915 85.3343 138.284C85.5559 138.727 85.7037 139.17 85.7037 139.687C85.7037 140.203 85.5559 140.72 85.3343 141.163C85.1126 141.606 84.7432 141.901 84.2999 142.123C83.8566 142.344 83.3394 142.492 82.8222 142.492C81.8618 142.492 81.1229 142.197 80.6058 141.532C80.0886 140.868 79.8669 139.982 79.8669 138.801C79.8669 137.619 80.0886 136.659 80.5319 135.995C80.9752 135.331 81.714 134.888 82.6745 134.666L85.1865 134.075L85.3343 134.74L82.97 135.257C82.1573 135.404 81.5662 135.774 81.1968 136.217C80.8274 136.659 80.6058 137.324 80.6058 138.21C80.8274 137.767 81.1229 137.398 81.5662 137.176C82.0095 136.955 82.4528 136.807 82.97 136.807C83.4872 136.955 84.0044 137.102 84.3738 137.324ZM83.9305 141.68C84.226 141.532 84.5215 141.237 84.6693 140.942C84.8171 140.646 84.9648 140.203 84.9648 139.834C84.9648 139.391 84.891 139.022 84.7432 138.727C84.5954 138.431 84.2999 138.136 84.0044 137.988C83.7088 137.841 83.3394 137.693 82.97 137.693C82.6006 137.693 82.2312 137.767 81.9357 137.988C81.6401 138.136 81.3446 138.431 81.1968 138.727C81.0491 139.022 80.9013 139.391 80.9013 139.834C80.9013 140.277 80.9752 140.646 81.1968 140.942C81.3446 141.237 81.6401 141.532 81.9357 141.68C82.2312 141.828 82.6006 141.975 82.97 141.975C83.2655 141.901 83.635 141.828 83.9305 141.68Z" fill="white"/>
<path opacity="0.8" d="M92.2791 136.881L89.4715 143.23C89.2499 143.747 88.9544 144.116 88.6588 144.338C88.3633 144.559 87.9939 144.707 87.5506 144.707C87.2551 144.707 87.0334 144.633 86.8118 144.559C86.5901 144.485 86.3685 144.338 86.2207 144.19L86.5901 143.599C86.8856 143.895 87.2551 144.042 87.6245 144.042C87.8461 144.042 88.0678 143.969 88.2894 143.821C88.4372 143.673 88.6588 143.452 88.8066 143.083L89.0282 142.566L86.5162 136.955H87.3289L89.4715 141.754L91.6141 136.955H92.2791V136.881Z" fill="white"/>
<path opacity="0.8" d="M99.0764 141.828V143.821H98.3375V142.492H93.3135V143.821H92.5747V141.828H92.8702C93.2396 141.828 93.5352 141.532 93.6091 141.015C93.7568 140.499 93.8307 139.76 93.9046 138.727L93.9785 136.807H98.1159V141.754H99.0764V141.828ZM94.4218 140.794C94.3479 141.311 94.1262 141.68 93.9046 141.828H97.4509V137.545H94.7173L94.6434 138.801C94.6434 139.613 94.5695 140.277 94.4218 140.794Z" fill="white"/>
<path opacity="0.8" d="M105.726 136.881L102.918 143.23C102.697 143.747 102.401 144.116 102.106 144.338C101.81 144.559 101.441 144.707 100.997 144.707C100.702 144.707 100.48 144.633 100.259 144.559C100.037 144.485 99.8152 144.338 99.6675 144.19L100.037 143.599C100.332 143.895 100.702 144.042 101.071 144.042C101.293 144.042 101.515 143.969 101.736 143.821C101.884 143.673 102.106 143.452 102.253 143.083L102.475 142.566L99.963 136.955H100.776L102.918 141.754L105.061 136.955H105.726V136.881Z" fill="white"/>
<path opacity="0.8" d="M115.035 136.881V142.492H107.203V136.881H107.942V141.827H110.75V136.881H111.489V141.827H114.222V136.881H115.035ZM115.848 141.827V143.747H115.109V142.492H114.148V141.827H115.848Z" fill="white"/>
<path opacity="0.8" d="M122.423 139.908H117.695C117.769 140.499 117.99 140.942 118.36 141.311C118.803 141.68 119.32 141.828 119.911 141.828C120.281 141.828 120.576 141.754 120.872 141.606C121.167 141.459 121.389 141.311 121.611 141.089L122.054 141.606C121.832 141.901 121.463 142.123 121.093 142.271C120.724 142.418 120.281 142.492 119.837 142.492C119.246 142.492 118.729 142.344 118.286 142.123C117.843 141.901 117.473 141.532 117.251 141.089C117.03 140.646 116.882 140.13 116.882 139.613C116.882 139.096 117.03 138.579 117.251 138.136C117.473 137.693 117.843 137.324 118.212 137.103C118.655 136.881 119.099 136.733 119.616 136.733C120.133 136.733 120.576 136.881 121.02 137.103C121.463 137.324 121.758 137.693 121.98 138.136C122.202 138.579 122.349 139.096 122.349 139.613L122.423 139.908ZM118.36 137.989C117.99 138.358 117.769 138.801 117.695 139.317H121.684C121.611 138.727 121.389 138.284 121.02 137.989C120.65 137.619 120.207 137.472 119.616 137.472C119.172 137.472 118.729 137.619 118.36 137.989Z" fill="white"/>
<path opacity="0.8" d="M128.482 137.545H125.231V142.492H124.492V136.881H128.482V137.545Z" fill="white"/>
<path opacity="0.8" d="M130.476 142.197C130.033 141.975 129.664 141.606 129.442 141.163C129.22 140.72 129.073 140.203 129.073 139.686C129.073 139.17 129.22 138.653 129.442 138.21C129.664 137.767 130.033 137.398 130.476 137.176C130.92 136.955 131.437 136.807 131.954 136.807C132.471 136.807 132.988 136.955 133.432 137.176C133.875 137.398 134.244 137.767 134.466 138.21C134.688 138.653 134.835 139.17 134.835 139.686C134.835 140.203 134.688 140.72 134.466 141.163C134.244 141.606 133.875 141.975 133.432 142.197C132.988 142.418 132.471 142.566 131.954 142.566C131.437 142.566 130.92 142.418 130.476 142.197ZM133.062 141.606C133.358 141.458 133.653 141.163 133.801 140.794C133.949 140.425 134.097 140.056 134.097 139.613C134.097 139.17 134.023 138.801 133.801 138.431C133.653 138.062 133.358 137.841 133.062 137.619C132.767 137.472 132.397 137.324 131.954 137.324C131.585 137.324 131.215 137.398 130.846 137.619C130.55 137.767 130.255 138.062 130.107 138.431C129.959 138.801 129.811 139.17 129.811 139.613C129.811 140.056 129.885 140.425 130.107 140.794C130.255 141.163 130.55 141.385 130.846 141.606C131.141 141.754 131.511 141.901 131.954 141.901C132.397 141.901 132.767 141.754 133.062 141.606Z" fill="white"/>
</g>
</g>
<path d="M7.01884 108.899H0V125.068H2.9553V119.9H7.01884C10.9346 119.9 12.9294 117.168 12.9294 114.437C12.9294 111.631 10.9346 108.899 7.01884 108.899ZM2.9553 111.41H6.64942C9.01366 111.41 9.90025 112.886 9.90025 114.363C9.90025 115.692 9.08754 117.316 6.64942 117.316H2.9553V111.41Z" fill="white"/>
<path d="M21.8692 112.591C17.9535 112.591 15.2937 115.101 15.2937 118.866C15.2937 122.558 18.0274 125.142 21.8692 125.142C25.7111 125.142 28.4448 122.558 28.4448 118.866C28.4448 115.175 25.7111 112.591 21.8692 112.591ZM21.8692 122.632C19.6528 122.632 18.249 121.155 18.249 118.94C18.249 116.651 19.6528 115.175 21.8692 115.175C24.0857 115.175 25.4895 116.651 25.4895 118.94C25.5634 121.155 24.0857 122.632 21.8692 122.632Z" fill="white"/>
<path d="M40.857 121.229C39.9704 122.189 38.9361 122.632 37.6801 122.632C35.3897 122.632 33.9121 121.155 33.9121 118.866C33.9121 116.578 35.3897 115.101 37.6801 115.101C39.3055 115.101 40.266 115.839 40.857 116.504L41.3003 116.947L42.9996 114.88L42.6302 114.511C41.3003 113.182 39.601 112.517 37.6062 112.517C33.6166 112.517 30.9568 115.027 30.9568 118.793C30.9568 122.558 33.6166 125.068 37.6062 125.068C39.6749 125.068 41.2264 124.478 42.7041 123.075L43.0735 122.706L41.3003 120.638L40.857 121.229Z" fill="white"/>
<path d="M45.8811 124.994H48.6886V115.175H54.0082V124.994H56.8157V112.739H45.8811V124.994Z" fill="white"/>
<path d="M70.3362 113.994C69.3757 113.034 67.9719 112.517 66.2726 112.517C62.5785 112.517 60.1404 115.101 60.1404 118.866C60.1404 122.632 62.5785 125.142 66.1987 125.142C67.898 125.142 69.3018 124.625 70.3362 123.592L70.41 124.994H73.1437V112.739H70.4839L70.3362 113.994ZM66.7159 122.632C64.4994 122.632 63.0957 121.155 63.0957 118.94C63.0957 116.652 64.4994 115.175 66.7159 115.175C68.7846 115.175 70.2623 116.725 70.2623 118.94C70.2623 121.081 68.7846 122.632 66.7159 122.632Z" fill="white"/>
<path d="M75.7295 115.175H79.793V124.994H82.6006V115.175H86.6641V112.739H75.7295V115.175Z" fill="white"/>
<path d="M96.121 112.591C94.4956 112.591 93.0179 113.108 92.0575 114.067L91.9097 112.738H89.3977V128.686H92.2791V123.887C93.2396 124.699 94.6434 125.142 96.121 125.142C99.8151 125.142 102.327 122.632 102.327 118.866C102.327 115.101 99.8151 112.591 96.121 112.591ZM95.8255 115.175C98.0419 115.175 99.4457 116.651 99.4457 118.94C99.4457 121.229 98.0419 122.706 95.8255 122.706C93.7568 122.706 92.2052 121.155 92.2052 118.94C92.2052 116.725 93.7568 115.175 95.8255 115.175Z" fill="white"/>
<path d="M108.312 120.565C108.312 120.048 108.312 119.531 108.312 119.014V112.739H105.504V124.994H107.942L113.853 117.168C113.853 117.537 113.853 117.98 113.853 118.35V124.994H116.587V112.739H114.148L108.312 120.565Z" fill="white"/>
<path d="M126.487 112.591C122.571 112.591 119.911 115.101 119.911 118.866C119.911 122.558 122.645 125.142 126.487 125.142C130.329 125.142 133.062 122.558 133.062 118.866C133.062 115.175 130.329 112.591 126.487 112.591ZM126.487 122.632C124.27 122.632 122.867 121.155 122.867 118.94C122.867 116.651 124.27 115.175 126.487 115.175C128.703 115.175 130.107 116.651 130.107 118.94C130.107 121.155 128.703 122.632 126.487 122.632Z" fill="white"/>
<path d="M134.688 112.739V115.175H138.677V124.994H141.559V115.175H145.548V112.739H134.688Z" fill="white"/>
<path d="M55.8553 56.7754C48.7625 60.8361 44.3296 68.3667 44.3296 76.488V77.0049V83.2804V88.3009L62.3569 98.7847C63.0219 99.1539 63.8346 98.7109 63.8346 97.9726L63.9084 78.8506C63.9084 77.817 64.4995 76.931 65.3861 76.4142L83.2657 66.2995C94.348 60.0239 101.145 48.3588 101.145 35.66V31.2302L55.8553 56.7754Z" fill="url(#paint0_linear)"/>
<path d="M94.2004 20.1557L60.5838 1.40283C59.6234 3.83922 59.4756 6.7186 57.333 8.26903C58.4412 9.22882 59.4017 10.3363 60.2883 11.6652C61.9876 14.3969 63.3914 17.3501 64.4257 20.3772C65.4601 23.4042 66.1989 26.4312 66.5683 29.5321C66.6422 29.6059 66.79 29.6059 66.8639 29.6797L90.2846 42.9692C95.1608 45.7009 101.219 42.2309 101.219 36.6198V31.0825C101.219 26.1359 98.4856 22.6659 94.2004 20.1557Z" fill="url(#paint1_linear)"/>
<path d="M44.4035 88.2269L83.3395 66.2255C94.4219 59.95 101.219 48.2848 101.219 35.5861V31.1562L55.8553 56.7753C48.7625 60.8359 44.3296 68.3666 44.3296 76.4879V88.2269H44.4035Z" fill="url(#paint2_linear)"/>
<path d="M82.2313 38.2441C82.2313 22.9612 73.9565 8.8597 60.6576 1.40286C53.3433 -2.65779 44.3296 2.58414 44.3296 10.9269V16.0212V35.5862C44.3296 36.1768 44.699 36.7675 45.2162 37.0628L62.1353 46.6607C63.0957 47.1775 64.204 46.513 64.204 45.4056L63.9823 31.0087C63.9823 29.8274 65.2383 29.0891 66.2727 29.6798L82.1574 38.3917L82.2313 38.2441Z" fill="url(#paint3_linear)"/>
<path opacity="0.25" d="M101.219 31.0825L85.4082 40.1636L82.3052 38.3917L100.628 27.3171C100.628 27.3171 101.145 28.7937 101.219 31.0825Z" fill="white"/>
<path opacity="0.25" d="M44.4036 88.2271L65.3123 76.4143C65.3123 76.4143 64.4996 77.0049 64.2041 77.8171C63.9824 78.5554 64.0563 80.8441 64.0563 80.8441L48.0238 90.3682" fill="white"/>
</g>
<defs>
<linearGradient id="paint0_linear" x1="44.3739" y1="64.9854" x2="101.206" y2="64.9854" gradientUnits="userSpaceOnUse">
<stop stop-color="white"/>
</linearGradient>
<linearGradient id="paint1_linear" x1="43.8365" y1="35.7557" x2="96.1503" y2="15.66" gradientUnits="userSpaceOnUse">
<stop offset="0.00248397" stop-color="white"/>
</linearGradient>
<linearGradient id="paint2_linear" x1="101.206" y1="59.6757" x2="44.374" y2="59.6757" gradientUnits="userSpaceOnUse">
<stop offset="0.00122196" stop-color="white"/>
</linearGradient>
<linearGradient id="paint3_linear" x1="53.358" y1="42.0202" x2="71.7963" y2="7.31806" gradientUnits="userSpaceOnUse">
<stop stop-color="white"/>
</linearGradient>
<clipPath id="clip0">
<rect width="145.548" height="144.633" fill="white"/>
</clipPath>
</defs>
</svg>
