<svg width="255" height="61" viewBox="0 0 255 61" fill="none" xmlns="http://www.w3.org/2000/svg">
<g clip-path="url(#clip0)">
<path d="M254.343 45.8564H0V60.4162H254.343V45.8564Z" fill="white"/>
<path d="M237.149 25.5817V7.3479H242.376V12.6547H246.778C251.455 12.6547 254.343 15.2401 254.343 19.0502C254.343 20.9552 253.656 22.452 252.418 23.6766C251.18 24.9013 249.254 25.4456 247.053 25.4456H237.149V25.5817ZM242.376 21.6355H245.952C248.016 21.6355 249.116 20.683 249.116 19.0502C249.116 17.4173 247.878 16.4648 245.952 16.4648H242.376V21.6355Z" fill="white"/>
<path d="M203.447 25.5817L211.426 15.9205L204.273 7.3479H210.188L215.827 14.1515V7.3479H220.917V14.1515L226.557 7.3479H232.472L225.319 15.9205L233.297 25.5817H226.97L220.917 17.8255V25.5817H215.827V17.8255L209.637 25.5817H203.447Z" fill="white"/>
<path d="M185.152 23.4045C183.226 21.6356 182.263 19.3223 182.263 16.4648C182.263 13.7433 183.089 11.4301 184.877 9.66115C186.665 7.75613 189.004 6.9397 191.755 6.9397C194.506 6.9397 196.569 7.89221 198.083 9.79723C199.733 11.7022 200.421 13.8794 200.421 16.6009V17.9616H187.215C187.766 20.4109 190.104 21.7716 193.406 21.7716C195.469 21.7716 197.395 21.2273 199.321 20.1388V24.2209C197.67 25.4456 195.331 26.126 192.305 26.126C189.554 25.9899 187.215 25.1735 185.152 23.4045ZM195.469 14.5598C195.469 12.5187 193.956 10.8858 191.617 10.8858C189.279 10.8858 187.628 12.3826 187.353 14.5598H195.469Z" fill="white"/>
<path d="M177.036 22.1799L170.296 7.21191H166.995L159.979 22.1799H156.815V26.5343H180.063V22.1799H177.036ZM164.931 22.1799L168.508 14.5598L171.947 22.1799H164.931Z" fill="white"/>
<path d="M144.71 7.07568C139.346 7.07568 135.081 11.43 135.081 16.6008C135.081 21.7716 139.483 26.1259 144.71 26.1259C150.075 26.1259 154.339 21.7716 154.339 16.6008C154.339 11.43 150.075 7.07568 144.71 7.07568ZM144.71 22.0437C141.684 22.0437 139.346 19.5944 139.346 16.7369C139.346 13.7433 141.822 11.43 144.71 11.43C147.599 11.43 150.075 13.8793 150.075 16.7369C150.213 19.7305 147.737 22.0437 144.71 22.0437Z" fill="white"/>
<path d="M101.242 7.07568C95.8773 7.07568 91.613 11.43 91.613 16.6008C91.613 21.7716 96.0149 26.1259 101.242 26.1259C106.607 26.1259 110.871 21.7716 110.871 16.6008C110.871 11.43 106.607 7.07568 101.242 7.07568ZM101.242 22.0437C98.2158 22.0437 95.8773 19.5944 95.8773 16.7369C95.8773 13.7433 98.3533 11.43 101.242 11.43C104.268 11.43 106.607 13.8793 106.607 16.7369C106.607 19.7305 104.268 22.0437 101.242 22.0437Z" fill="white"/>
<path d="M66.3027 25.5817V7.3479H71.3924L76.7571 14.1515L82.1218 7.3479H87.2114V25.5817H82.2594V14.2876L77.72 20.0027H75.6566L71.1172 14.2876V25.5817H66.3027Z" fill="white"/>
<path d="M47.7325 23.4046C45.8067 21.6357 44.8438 19.3224 44.8438 16.3288C44.8438 13.4713 45.8067 11.158 47.7325 9.3891C49.6583 7.75622 51.9967 6.80371 54.7479 6.80371C56.8112 6.80371 58.5995 7.21193 60.2502 8.02837V12.3827C58.5995 11.7023 57.0864 11.2941 55.5732 11.2941C53.9225 11.2941 52.547 11.7023 51.4465 12.6548C50.346 13.6074 49.7958 14.832 49.7958 16.3288C49.7958 17.8256 50.346 19.0503 51.4465 20.0028C52.547 20.9553 53.9225 21.3635 55.5732 21.3635C57.499 21.3635 59.1497 20.9553 60.5253 20.1389V24.4932C58.737 25.4457 56.8112 25.8539 54.7479 25.8539C51.9967 25.99 49.6583 25.1735 47.7325 23.4046Z" fill="white"/>
<path d="M31.2254 7.07568C25.8607 7.07568 21.5964 11.43 21.5964 16.6008C21.5964 21.7716 25.9983 26.1259 31.2254 26.1259C36.5902 26.1259 40.8545 21.7716 40.8545 16.6008C40.8545 11.43 36.5902 7.07568 31.2254 7.07568ZM31.2254 22.0437C28.1992 22.0437 25.8607 19.5944 25.8607 16.7369C25.8607 13.7433 28.3367 11.43 31.2254 11.43C34.1142 11.43 36.5902 13.8793 36.5902 16.7369C36.7277 19.7305 34.2517 22.0437 31.2254 22.0437Z" fill="white"/>
<path d="M0.137939 25.5817V0H11.4176C14.1688 0 16.3697 0.680364 18.0204 2.17717C19.6711 3.53789 20.4964 5.44291 20.4964 7.75615C20.4964 10.0694 19.6711 11.9744 18.0204 13.3351C16.3697 14.6959 14.1688 15.5123 11.4176 15.5123H5.50267V25.5817H0.137939ZM5.50267 11.0219H11.005C13.6186 11.0219 15.1317 9.93332 15.1317 7.89223C15.1317 5.85113 13.6186 4.76255 11.005 4.76255H5.50267V11.0219Z" fill="white"/>
<path d="M117.061 26.3982L122.701 14.4238L128.203 26.3982H133.155L124.489 7.21191H121.188L112.109 26.3982H117.061Z" fill="white"/>
</g>
<defs>
<clipPath id="clip0">
<rect width="254.481" height="60.4164" fill="white"/>
</clipPath>
</defs>
</svg>
