<svg width="207" height="77" viewBox="0 0 207 77" fill="none" xmlns="http://www.w3.org/2000/svg">
<g clip-path="url(#clip0)">
<path d="M120.054 0.380371H90.7175V6.95929H120.054V0.380371Z" fill="white"/>
<path d="M134.703 16.9227H152.557V27.4946H160.797V0.342285H152.557V9.96349H134.703V0.342285H126.425V27.4946H134.703V16.9227Z" fill="white"/>
<path d="M178.231 22.9692H194.596L197.19 27.5326H206.842L193.452 0.342285H179.375L166.023 27.4946H175.675L178.231 22.9692ZM185.746 6.46487H187.081L191.506 15.972H181.321L185.746 6.46487Z" fill="white"/>
<path d="M120.054 20.9155H90.7175V27.4945H120.054V20.9155Z" fill="white"/>
<path d="M119.634 17.2269H120.016V10.686H119.634H102.048H101.666H91.099H90.7175V17.2269H91.099H119.634Z" fill="white"/>
<path d="M17.0136 27.9129C32.9598 27.9129 33.4938 26.3918 33.4938 17.1128H25.2537C25.2537 20.3452 24.4526 20.9157 17.0136 20.9157C8.88794 20.9157 8.8498 20.7255 8.8498 14.0325C8.8498 7.30146 8.88794 7.11132 17.0136 7.11132C24.5289 7.11132 25.2537 7.90992 25.2537 10.9142H33.532C33.532 1.5972 32.8453 0 17.0136 0C1.4108 0 0.571533 1.21691 0.571533 13.9564C0.571533 26.696 1.4108 27.9129 17.0136 27.9129Z" fill="white"/>
<path d="M47.6857 8.51846C47.6857 7.68183 47.3042 6.88324 47.3042 6.4269C47.3042 6.23675 47.3424 6.08464 47.5331 6.08464C47.8002 6.08464 48.1054 6.92127 48.2961 7.37761L58.5963 27.5327H65.3486L74.9239 7.45366C75.1146 7.07338 75.4198 6.19872 75.6869 6.19872C75.8394 6.19872 75.9157 6.31281 75.9157 6.4269C75.9157 6.99732 75.5343 7.79592 75.5343 8.59452V27.5327H83.8125V0.380371H69.6975L62.64 15.6678C62.4111 16.2002 62.3348 18.9383 61.9915 18.9383C61.6481 18.9383 61.5718 16.2002 61.343 15.6678L54.2473 0.380371H39.4075V27.5327H47.6857V8.51846Z" fill="white"/>
<path d="M16.1369 59.0581H6.14194L1.14446 74.1934H0V76.5892H17.4339V74.1934H16.1369V59.0581ZM13.3139 61.4919V74.1934H4.1582L8.27826 61.4919H13.3139Z" fill="white"/>
<path d="M19.2271 76.5892H30.7098V74.1934H22.0501V68.9835H30.4046V66.5497H22.0501V61.4919H30.7098V59.0581H19.2271V76.5892Z" fill="white"/>
<path d="M31.4727 61.4919H35.8979V76.5892H38.7209V61.4919H43.1461V59.0581H31.4727V61.4919Z" fill="white"/>
<path d="M60.58 71.4935C59.8552 72.3682 58.9015 73.0527 57.7952 73.5851C55.3918 74.6879 52.6451 74.6119 50.3562 73.471C49.1736 72.8626 48.1817 72.064 47.495 71.0372C46.8084 70.0485 46.465 68.9456 46.465 67.7668C46.465 66.6639 46.8084 65.6372 47.495 64.6484C48.1817 63.6597 49.1354 62.8231 50.318 62.2146C52.2255 61.2259 54.4762 61.0357 56.6126 61.6442C57.4137 61.8724 58.1767 62.1766 58.8633 62.5949C59.55 63.0132 60.1222 63.5076 60.5419 64.078L60.6945 64.2681H63.7464L63.4793 63.6217C63.2123 63.0132 62.7164 62.3667 62.0297 61.7583C61.343 61.1498 60.6563 60.6554 59.9315 60.2752C58.253 59.3244 56.3074 58.8301 54.1329 58.8301C52.2636 58.8301 50.5088 59.2484 48.9065 60.009C47.3043 60.8076 46.0072 61.9104 45.0917 63.2794C44.138 64.6484 43.6802 66.1696 43.6802 67.8048C43.6802 69.0597 43.9472 70.2766 44.5194 71.3795C45.0535 72.4823 45.8546 73.471 46.8084 74.3077C47.8002 75.1443 48.9447 75.7527 50.2036 76.2091C51.5007 76.6654 52.874 76.8936 54.2855 76.8936C55.5444 76.8936 56.7652 76.7034 57.9478 76.2851C59.1304 75.8668 60.2367 75.3344 61.1904 74.5739C62.1441 73.8513 62.9452 72.9767 63.5175 72.0259L63.9371 71.3414H60.7708L60.58 71.4935Z" fill="white"/>
<path d="M76.9077 59.0581L68.5913 67.9187V59.0581H65.7683V76.5892H68.5913V71.7596L70.6513 69.592L76.9459 76.5892H80.57L72.5206 67.6145L80.6081 59.0581H76.9077Z" fill="white"/>
<path d="M84.0796 71.9497V59.0581H81.2566V76.5892H83.8889L94.189 62.861V76.5892H97.0502V59.0581H93.7312L84.0796 71.9497Z" fill="white"/>
<path d="M102.963 71.9497V59.0581H100.14V76.5892H102.772L113.073 62.861V76.5892H115.934V59.0581H112.577L102.963 71.9497Z" fill="white"/>
<path d="M146.949 59.0581H144.088V74.1934H134.97V59.0581H132.109V76.5892H148.246V74.1934H146.949V59.0581Z" fill="white"/>
<path d="M150.039 76.5892H161.522V74.1934H152.862V68.9835H161.216V66.5497H152.862V61.4919H161.522V59.0581H150.039V76.5892Z" fill="white"/>
<path d="M176.056 66.3596H166.9V59.0581H164.077V76.5892H166.9V68.7934H176.056V76.5892H178.879V59.0581H176.056V66.3596Z" fill="white"/>
<path d="M180.176 61.4919H184.601V76.5892H187.462V61.4919H191.888V59.0581H180.176V61.4919Z" fill="white"/>
<path d="M206.155 61.9104C205.698 61.1118 204.973 60.5034 204.095 60.009C203.561 59.7428 202.989 59.5146 202.417 59.3625C201.845 59.2104 201.272 59.1343 200.662 59.0963C200.09 59.0583 199.441 59.0203 198.678 59.0203H193.147V76.5514H195.97V69.8584H199.174C200.281 69.8584 201.234 69.7823 202.074 69.6302C202.913 69.4781 203.714 69.1739 204.439 68.7175C206.041 67.7288 206.842 66.2837 206.842 64.4964C206.88 63.5837 206.613 62.709 206.155 61.9104ZM196.008 61.4921H198.068C198.221 61.4921 198.411 61.4921 198.716 61.4921C199.022 61.4921 199.212 61.4921 199.365 61.4921C200.433 61.4921 201.272 61.6062 201.959 61.8344C202.646 62.0625 203.18 62.4428 203.523 62.8992C203.905 63.3555 204.057 63.8879 204.057 64.4964C204.057 64.9907 203.943 65.409 203.676 65.8654C203.409 66.2837 203.065 66.626 202.608 66.8922C202.112 67.1584 201.616 67.3105 201.044 67.3865C200.471 67.4626 199.746 67.5006 198.907 67.5006H196.008V61.4921Z" fill="white"/>
<path d="M0.572266 36.4692H4.46343C5.26455 36.4692 5.95123 36.5073 6.56161 36.6214C7.17199 36.6974 7.70607 36.8876 8.24015 37.1918C8.85053 37.534 9.30831 37.9904 9.65165 38.5228C9.99499 39.0552 10.1857 39.6636 10.1857 40.2721C10.1857 41.4129 9.57535 42.3637 8.35459 43.1242C9.23201 43.4284 9.88054 43.8848 10.3765 44.5313C10.8724 45.1778 11.1013 45.9003 11.1013 46.7369C11.1013 47.3834 10.9106 47.9919 10.5672 48.6003C10.1857 49.1707 9.6898 49.6651 9.07942 50.0074C8.62163 50.2355 8.16385 50.4257 7.66792 50.5398C7.17199 50.6539 6.7142 50.7299 6.25642 50.7299C5.79863 50.7679 5.2264 50.7679 4.50158 50.7679H0.572266V36.4692ZM4.04379 42.5538C4.76862 42.5538 5.379 42.5158 5.87493 42.4777C6.37086 42.4397 6.7905 42.3256 7.21013 42.1355C7.59162 41.9453 7.93496 41.6791 8.16385 41.2989C8.43089 40.9186 8.54534 40.5383 8.54534 40.158C8.54534 39.7777 8.43089 39.3974 8.16385 39.0552C7.93496 38.6749 7.59162 38.4087 7.21013 38.2185C6.82865 38.0284 6.40901 37.9143 5.91308 37.8763C5.41715 37.8383 4.84492 37.8002 4.15824 37.8002H2.25081V42.5918H4.04379V42.5538ZM4.27269 49.4369C5.07381 49.4369 5.72234 49.3989 6.29457 49.3609C6.82865 49.3229 7.36273 49.2088 7.78236 49.0186C8.24015 48.7905 8.65978 48.4862 8.96497 48.0679C9.27016 47.6496 9.42276 47.1933 9.42276 46.7369C9.42276 46.1285 9.23201 45.5961 8.85053 45.1397C8.46904 44.6834 7.97311 44.3411 7.32458 44.151C6.6379 43.9608 5.53159 43.8468 3.9675 43.8468H2.25081V49.4369H4.27269Z" fill="white"/>
<path d="M27.2383 40.1201C26.8186 39.5877 26.3227 39.1314 25.6742 38.7511C25.0638 38.3708 24.3771 38.0666 23.6141 37.8764C22.8893 37.6863 22.1263 37.5722 21.4015 37.5722C20.1808 37.5722 19.0363 37.8384 17.93 38.4088C16.8618 38.9412 15.9844 39.7018 15.374 40.6145C14.7255 41.5272 14.4203 42.5159 14.4203 43.5427C14.4203 44.6075 14.7255 45.6342 15.374 46.5469C16.0225 47.4596 16.9 48.2202 17.9681 48.7526C19.0744 49.285 20.2189 49.5892 21.4778 49.5892C22.5841 49.5892 23.6904 49.361 24.7205 48.8667C25.7505 48.4103 26.5897 47.7638 27.2764 46.9652H29.1075C28.6116 47.7638 28.0012 48.4483 27.2001 49.0568C26.399 49.6653 25.5216 50.1216 24.5297 50.4639C23.5378 50.8061 22.546 50.9582 21.4778 50.9582C20.2952 50.9582 19.1507 50.7681 18.0826 50.3878C17.0144 50.0075 16.0988 49.4751 15.2596 48.8286C14.4585 48.1441 13.8481 47.3455 13.3903 46.4328C12.9325 45.5202 12.7036 44.5694 12.7036 43.5427C12.7036 42.2117 13.0851 40.9948 13.8481 39.8919C14.611 38.7891 15.6792 37.8764 16.9763 37.23C18.3115 36.5835 19.723 36.2412 21.2871 36.2412C23.0801 36.2412 24.6823 36.6215 26.0938 37.4201C26.666 37.7243 27.2764 38.1426 27.8105 38.637C28.3827 39.1314 28.7642 39.6257 28.955 40.1201H27.2383Z" fill="white"/>
<path d="M31.8159 36.4692H40.9335V37.7622H33.4945V42.8961H40.7046V44.189H33.4945V49.4369H40.9335V50.7299H31.8159V36.4692Z" fill="white"/>
<path d="M43.9092 36.4692H48.2963C48.9448 36.4692 49.4789 36.5073 49.9748 36.5073C50.4708 36.5453 50.9285 36.6214 51.4245 36.7354C51.8823 36.8495 52.34 37.0016 52.7597 37.2298C53.4845 37.6101 54.0186 38.1045 54.4001 38.7129C54.7816 39.3214 54.9723 40.0059 54.9723 40.7284C54.9723 42.1355 54.3238 43.2383 53.0649 44.0369C52.4926 44.4172 51.8441 44.6454 51.1574 44.7594C50.4708 44.8735 49.6696 44.9496 48.7541 44.9496H45.6259V50.6919H43.9473V36.4692H43.9092ZM48.4489 43.6946C49.1737 43.6946 49.8222 43.6566 50.3182 43.5806C50.8522 43.5045 51.3482 43.3524 51.806 43.1242C52.2637 42.896 52.6452 42.5538 52.8741 42.0974C53.1412 41.6791 53.2556 41.2228 53.2556 40.7284C53.2556 40.12 53.0649 39.5876 52.7215 39.0932C52.34 38.6369 51.8441 38.2946 51.1956 38.0664C50.5852 37.8383 49.8222 37.7242 48.8685 37.7242C48.7541 37.7242 48.5633 37.7242 48.2963 37.7242C48.0292 37.7242 47.8766 37.7242 47.724 37.7242H45.5877V43.6566H48.4489V43.6946Z" fill="white"/>
<path d="M74.1611 43.5808C74.1611 44.9118 73.7796 46.1667 72.9785 47.3075C72.1773 48.4484 71.1092 49.3611 69.7358 50.0076C68.3625 50.654 66.9128 50.9963 65.3487 50.9963C63.8228 50.9963 62.3731 50.654 60.9998 50.0076C59.6646 49.3611 58.5583 48.4864 57.7571 47.3456C56.956 46.2047 56.5364 44.9878 56.5364 43.6948C56.5364 42.3258 56.9179 41.1089 57.719 39.9681C58.5201 38.8272 59.5883 37.9525 60.9235 37.268C62.2587 36.6216 63.7465 36.2793 65.3106 36.2793C66.8747 36.2793 68.3243 36.6216 69.6595 37.268C71.0329 37.9145 72.101 38.7892 72.9022 39.93C73.7414 41.0329 74.1611 42.2498 74.1611 43.5808ZM58.2149 43.6568C58.2149 44.7216 58.5583 45.7103 59.2068 46.623C59.8553 47.5357 60.7327 48.2583 61.839 48.7907C62.9454 49.3231 64.128 49.5892 65.3487 49.5892C66.3024 49.5892 67.218 49.4371 68.0954 49.1329C68.9729 48.8287 69.7358 48.3723 70.3844 47.8399C71.0329 47.2695 71.567 46.623 71.9103 45.9005C72.2918 45.1779 72.4444 44.3794 72.4444 43.5427C72.4444 42.4779 72.101 41.4892 71.4525 40.5765C70.804 39.6638 69.9266 38.9413 68.8203 38.4089C67.7139 37.8765 66.5313 37.6103 65.3106 37.6103C64.3569 37.6103 63.4413 37.7624 62.5639 38.0666C61.6865 38.3709 60.9235 38.8272 60.275 39.3596C59.6264 39.93 59.0923 40.5765 58.7109 41.299C58.4057 42.0596 58.2149 42.8582 58.2149 43.6568Z" fill="white"/>
<path d="M90.5649 40.1201C90.1452 39.5877 89.6493 39.1314 89.0008 38.7511C88.3904 38.3708 87.7037 38.0666 86.9407 37.8764C86.2159 37.6863 85.4529 37.5722 84.7281 37.5722C83.5074 37.5722 82.3629 37.8384 81.2566 38.4088C80.1884 38.9412 79.311 39.7018 78.7006 40.6145C78.0521 41.5272 77.7469 42.5159 77.7469 43.5427C77.7469 44.6075 78.0902 45.6342 78.7006 46.5469C79.3491 47.4596 80.2266 48.2202 81.2947 48.7526C82.401 49.285 83.5455 49.5892 84.8044 49.5892C85.9107 49.5892 87.017 49.361 88.047 48.8667C89.0771 48.4103 89.9163 47.7638 90.603 46.9652H92.4341C91.9382 47.7638 91.3278 48.4483 90.5267 49.0568C89.7256 49.6653 88.8482 50.1216 87.8563 50.4639C86.8644 50.8061 85.8726 50.9582 84.8044 50.9582C83.6218 50.9582 82.4773 50.7681 81.4092 50.3878C80.341 50.0075 79.4254 49.4751 78.6243 48.8286C77.8232 48.1441 77.1747 47.3455 76.755 46.4328C76.2973 45.5202 76.0684 44.5694 76.0684 43.5427C76.0684 42.2117 76.4498 40.9948 77.2128 39.8919C77.9758 38.7891 79.044 37.8764 80.341 37.23C81.6762 36.5835 83.0877 36.2412 84.6518 36.2412C86.4448 36.2412 88.047 36.6215 89.4585 37.4201C90.0308 37.7243 90.6412 38.1426 91.1752 38.637C91.7475 39.1314 92.129 39.6257 92.3197 40.1201H90.5649Z" fill="white"/>
<path d="M108.915 40.1201C108.495 39.5877 107.999 39.1314 107.35 38.7511C106.74 38.3708 106.053 38.0666 105.29 37.8764C104.566 37.6863 103.803 37.5722 103.078 37.5722C101.857 37.5722 100.713 37.8384 99.6063 38.4088C98.5381 38.9412 97.6607 39.7018 97.0503 40.6145C96.4018 41.5272 96.0966 42.5159 96.0966 43.5427C96.0966 44.6075 96.4399 45.6342 97.0503 46.5469C97.6988 47.4596 98.5762 48.2202 99.6444 48.7526C100.751 49.285 101.895 49.5892 103.154 49.5892C104.26 49.5892 105.367 49.361 106.397 48.8667C107.427 48.4103 108.266 47.7638 108.953 46.9652H110.784C110.288 47.7638 109.678 48.4483 108.876 49.0568C108.075 49.6653 107.198 50.1216 106.206 50.4639C105.214 50.8061 104.222 50.9582 103.154 50.9582C101.971 50.9582 100.827 50.7681 99.7589 50.3878C98.6907 50.0075 97.7751 49.4751 96.9358 48.8286C96.1347 48.1441 95.5243 47.3455 95.0666 46.4328C94.6088 45.5202 94.3799 44.5694 94.3799 43.5427C94.3799 42.2117 94.7614 40.9948 95.5243 39.8919C96.2873 38.7891 97.3555 37.8764 98.6525 37.23C99.9877 36.5835 101.399 36.2412 102.963 36.2412C104.756 36.2412 106.359 36.6215 107.77 37.4201C108.342 37.7243 108.953 38.1426 109.487 38.637C110.059 39.1314 110.44 39.6257 110.631 40.1201H108.915Z" fill="white"/>
<path d="M126.31 36.4692V50.7299H124.632V38.1805L115.209 50.7299H113.492V36.4692H115.171V48.2961L124.021 36.4692H126.31Z" fill="white"/>
<path d="M159.69 40.1201C159.271 39.5877 158.775 39.1314 158.126 38.7511C157.516 38.3708 156.829 38.0666 156.066 37.8764C155.341 37.6863 154.578 37.5722 153.854 37.5722C152.633 37.5722 151.488 37.8384 150.382 38.4088C149.314 38.9412 148.436 39.7018 147.826 40.6145C147.178 41.5272 146.872 42.5159 146.872 43.5427C146.872 44.6075 147.178 45.6342 147.826 46.5469C148.475 47.4596 149.352 48.2202 150.42 48.7526C151.527 49.285 152.671 49.5892 153.93 49.5892C155.036 49.5892 156.143 49.361 157.173 48.8667C158.203 48.4103 159.042 47.7638 159.728 46.9652H161.598C161.102 47.7638 160.491 48.4483 159.69 49.0568C158.889 49.6653 158.012 50.1216 157.02 50.4639C156.028 50.8061 155.036 50.9582 153.968 50.9582C152.785 50.9582 151.641 50.7681 150.573 50.3878C149.505 50.0075 148.589 49.4751 147.75 48.8286C146.949 48.1441 146.338 47.3455 145.881 46.4328C145.423 45.5202 145.194 44.5694 145.194 43.5427C145.194 42.2117 145.575 40.9948 146.338 39.8919C147.101 38.7891 148.169 37.8764 149.466 37.23C150.802 36.5835 152.213 36.2412 153.777 36.2412C155.57 36.2412 157.173 36.6215 158.584 37.4201C159.156 37.7243 159.767 38.1426 160.301 38.637C160.873 39.1314 161.254 39.6257 161.445 40.1201H159.69Z" fill="white"/>
<path d="M164.306 36.4692H165.947V44.6834L173.653 36.4692H175.751L169.189 43.4284L175.751 50.7299H173.691L168.121 44.5693L165.947 46.813V50.7299H164.306V36.4692Z" fill="white"/>
<path d="M190.4 36.4692V50.7299H188.76V38.1805L179.299 50.7299H177.62V36.4692H179.261V48.2961L188.149 36.4692H190.4Z" fill="white"/>
<path d="M142.485 36.5453V50.7299H140.845V38.2565L131.46 50.7299H129.782V36.5453H131.422V48.2961L140.234 36.5453H142.485ZM136.076 36.5453L133.94 34.834H138.251L136.076 36.5453Z" fill="white"/>
<path d="M206.575 36.5453V50.7299H204.935V38.2565L195.55 50.7299H193.872V36.5453H195.512V48.2961L204.324 36.5453H206.575ZM200.204 36.5453L198.068 34.834H202.379L200.204 36.5453Z" fill="white"/>
</g>
<defs>
<clipPath id="clip0">
<rect width="206.88" height="76.8935" fill="white"/>
</clipPath>
</defs>
</svg>
