<svg width="32" height="33" viewBox="0 0 32 33" fill="none" xmlns="http://www.w3.org/2000/svg">
<g clip-path="url(#clip0)">
<path d="M16 0.269775C7.16374 0.269775 0 7.43319 0 16.2698C0 25.1064 7.16374 32.2698 16 32.2698C24.8363 32.2698 32 25.1064 32 16.2698C32 7.43319 24.8363 0.269775 16 0.269775ZM24.1161 18.0002C24.8618 18.7286 25.6507 19.4141 26.3202 20.2178C26.6168 20.5733 26.8964 20.941 27.1092 21.3544C27.413 21.944 27.1386 22.5906 26.6109 22.6256L23.333 22.6249C22.4864 22.695 21.8127 22.3535 21.2447 21.7748C20.7913 21.3135 20.3707 20.8208 19.934 20.3438C19.7555 20.1481 19.5676 19.9638 19.3437 19.8187C18.8969 19.528 18.5086 19.6171 18.2526 20.0839C17.9917 20.5589 17.9321 21.0853 17.9072 21.614C17.8715 22.3869 17.6385 22.5889 16.8629 22.6253C15.2058 22.7028 13.6335 22.4514 12.1721 21.616C10.8829 20.8791 9.88514 19.839 9.01565 18.6615C7.32252 16.366 6.02582 13.8466 4.86073 11.2549C4.59851 10.6712 4.79034 10.3589 5.43427 10.3467C6.5041 10.3261 7.57393 10.3287 8.64376 10.3458C9.07916 10.3526 9.36724 10.6018 9.53453 11.0126C10.1127 12.435 10.8214 13.7883 11.7095 15.0435C11.9462 15.3777 12.1878 15.711 12.5319 15.947C12.9116 16.2076 13.201 16.1215 13.3801 15.6975C13.4947 15.4281 13.5441 15.14 13.569 14.8513C13.6541 13.8623 13.6642 12.8737 13.5169 11.8886C13.4253 11.2722 13.0786 10.8741 12.4641 10.7576C12.1512 10.6983 12.197 10.5824 12.3492 10.4037C12.6134 10.0947 12.8609 9.90349 13.3555 9.90349L17.059 9.90284C17.6427 10.0174 17.7737 10.2793 17.8529 10.8673L17.8562 14.9829C17.8493 15.2104 17.9704 15.8848 18.379 16.0337C18.7063 16.1418 18.9224 15.8792 19.1182 15.672C20.0063 14.7295 20.6391 13.6171 21.2058 12.4658C21.4559 11.958 21.6716 11.4326 21.8811 10.9062C22.0369 10.517 22.2792 10.3255 22.7185 10.332L26.2848 10.3363C26.3899 10.3363 26.4967 10.3373 26.6008 10.3553C27.2018 10.4581 27.3665 10.7167 27.1805 11.303C26.8879 12.2242 26.3192 12.9915 25.7634 13.7608C25.1675 14.5845 24.5321 15.3793 23.9422 16.2066C23.4001 16.9628 23.443 17.3435 24.1161 18.0002Z" fill="#E2575F"/>
</g>
<defs>
<clipPath id="clip0">
<rect width="32" height="32" fill="white" transform="translate(0 0.269775)"/>
</clipPath>
</defs>
</svg>
